<svg width="57" height="56" viewBox="0 0 57 56" fill="none" xmlns="http://www.w3.org/2000/svg">
<rect x="4.625" y="4" width="48" height="48" rx="24" fill="#A5C852" fill-opacity="0.3"/>
<rect x="4.625" y="4" width="48" height="48" rx="24" stroke="#A5C852" stroke-opacity="0.2" stroke-width="8"/>
<path d="M34.625 19C33.8294 19 33.0663 19.3161 32.5037 19.8787C31.9411 20.4413 31.625 21.2044 31.625 22V34C31.625 34.7956 31.9411 35.5587 32.5037 36.1213C33.0663 36.6839 33.8294 37 34.625 37C35.4206 37 36.1837 36.6839 36.7463 36.1213C37.3089 35.5587 37.625 34.7956 37.625 34C37.625 33.2044 37.3089 32.4413 36.7463 31.8787C36.1837 31.3161 35.4206 31 34.625 31H22.625C21.8294 31 21.0663 31.3161 20.5037 31.8787C19.9411 32.4413 19.625 33.2044 19.625 34C19.625 34.7956 19.9411 35.5587 20.5037 36.1213C21.0663 36.6839 21.8294 37 22.625 37C23.4206 37 24.1837 36.6839 24.7463 36.1213C25.3089 35.5587 25.625 34.7956 25.625 34V22C25.625 21.2044 25.3089 20.4413 24.7463 19.8787C24.1837 19.3161 23.4206 19 22.625 19C21.8294 19 21.0663 19.3161 20.5037 19.8787C19.9411 20.4413 19.625 21.2044 19.625 22C19.625 22.7956 19.9411 23.5587 20.5037 24.1213C21.0663 24.6839 21.8294 25 22.625 25H34.625C35.4206 25 36.1837 24.6839 36.7463 24.1213C37.3089 23.5587 37.625 22.7956 37.625 22C37.625 21.2044 37.3089 20.4413 36.7463 19.8787C36.1837 19.3161 35.4206 19 34.625 19Z" stroke="#A5C852" stroke-width="2" stroke-linecap="round" stroke-linejoin="round"/>
</svg>
