<svg width="57" height="56" viewBox="0 0 57 56" fill="none" xmlns="http://www.w3.org/2000/svg">
<rect x="4.375" y="4" width="48" height="48" rx="24" fill="#A5C852" fill-opacity="0.3"/>
<rect x="4.375" y="4" width="48" height="48" rx="24" stroke="#A5C852" stroke-opacity="0.2" stroke-width="8"/>
<path d="M25 28.7498L27.25 30.9998L31 25.7498M28 18.7141C25.8495 20.7507 22.9456 21.9999 19.75 21.9999C19.6992 21.9999 19.6485 21.9995 19.5979 21.9989C19.2099 23.179 19 24.44 19 25.7499C19 31.3414 22.8243 36.0397 28 37.3719C33.1757 36.0397 37 31.3414 37 25.7499C37 24.44 36.7901 23.179 36.4021 21.9989C36.3515 21.9995 36.3008 21.9999 36.25 21.9999C33.0544 21.9999 30.1505 20.7507 28 18.7141Z" stroke="#A5C852" stroke-width="1.5" stroke-linecap="round" stroke-linejoin="round"/>
</svg>
