<svg width="57" height="56" viewBox="0 0 57 56" fill="none" xmlns="http://www.w3.org/2000/svg">
<rect x="4.5" y="4" width="48" height="48" rx="24" fill="#A5C852" fill-opacity="0.3"/>
<rect x="4.5" y="4" width="48" height="48" rx="24" stroke="#A5C852" stroke-opacity="0.2" stroke-width="8"/>
<path d="M24.75 37V32.125C24.75 31.5037 25.2537 31 25.875 31H28.125C28.7463 31 29.25 31.5037 29.25 32.125V37M29.25 37H33.75V19.5455M29.25 37H36.75V26.75M18.75 37H20.25M38.25 37H20.25M18.75 25L23.25 23.3636M35.25 19L33.75 19.5455M33.75 25.75L36.75 26.75M38.25 27.25L36.75 26.75M23.25 23.3636V19H20.25V37M23.25 23.3636L33.75 19.5455" stroke="#A5C852" stroke-width="1.5" stroke-linecap="round" stroke-linejoin="round"/>
</svg>
