<svg width="57" height="56" viewBox="0 0 57 56" fill="none" xmlns="http://www.w3.org/2000/svg">
<rect x="4.125" y="4" width="48" height="48" rx="24" fill="#A5C852" fill-opacity="0.3"/>
<rect x="4.125" y="4" width="48" height="48" rx="24" stroke="#A5C852" stroke-opacity="0.2" stroke-width="8"/>
<path d="M18.375 34.75C23.8422 34.75 29.1386 35.4812 34.1718 36.8512C34.8988 37.0491 35.625 36.5086 35.625 35.7551V34.75M19.875 20.5V21.25C19.875 21.6642 19.5392 22 19.125 22H18.375M18.375 22V21.625C18.375 21.0037 18.8787 20.5 19.5 20.5H36.375M18.375 22V31M36.375 20.5V21.25C36.375 21.6642 36.7108 22 37.125 22H37.875M36.375 20.5H36.75C37.3713 20.5 37.875 21.0037 37.875 21.625V31.375C37.875 31.9963 37.3713 32.5 36.75 32.5H36.375M37.875 31H37.125C36.7108 31 36.375 31.3358 36.375 31.75V32.5M36.375 32.5H19.875M19.875 32.5H19.5C18.8787 32.5 18.375 31.9963 18.375 31.375V31M19.875 32.5V31.75C19.875 31.3358 19.5392 31 19.125 31H18.375M31.125 26.5C31.125 28.1569 29.7819 29.5 28.125 29.5C26.4681 29.5 25.125 28.1569 25.125 26.5C25.125 24.8431 26.4681 23.5 28.125 23.5C29.7819 23.5 31.125 24.8431 31.125 26.5ZM34.125 26.5H34.1325V26.5075H34.125V26.5ZM22.125 26.5H22.1325V26.5075H22.125V26.5Z" stroke="#A5C852" stroke-width="1.5" stroke-linecap="round" stroke-linejoin="round"/>
</svg>
