<svg width="57" height="56" viewBox="0 0 57 56" fill="none" xmlns="http://www.w3.org/2000/svg">
<rect x="4.5" y="4" width="48" height="48" rx="24" fill="#A5C852" fill-opacity="0.3"/>
<rect x="4.5" y="4" width="48" height="48" rx="24" stroke="#A5C852" stroke-opacity="0.2" stroke-width="8"/>
<path d="M28.5 22V34M25.5 31.1818L26.3789 31.841C27.5504 32.7197 29.4498 32.7197 30.6214 31.841C31.7929 30.9623 31.7929 29.5377 30.6214 28.659C30.0355 28.2196 29.2677 28 28.4999 28C27.775 28 27.0502 27.7804 26.4971 27.341C25.391 26.4623 25.391 25.0377 26.4971 24.159C27.6032 23.2804 29.3965 23.2804 30.5026 24.159L30.9175 24.4886M37.5 28C37.5 32.9706 33.4706 37 28.5 37C23.5294 37 19.5 32.9706 19.5 28C19.5 23.0294 23.5294 19 28.5 19C33.4706 19 37.5 23.0294 37.5 28Z" stroke="#A5C852" stroke-width="1.5" stroke-linecap="round" stroke-linejoin="round"/>
</svg>
