<svg width="57" height="56" viewBox="0 0 57 56" fill="none" xmlns="http://www.w3.org/2000/svg">
<rect x="4.875" y="4" width="48" height="48" rx="24" fill="#A5C852" fill-opacity="0.3"/>
<rect x="4.875" y="4" width="48" height="48" rx="24" stroke="#A5C852" stroke-opacity="0.2" stroke-width="8"/>
<path fill-rule="evenodd" clip-rule="evenodd" d="M32.7155 18.6876C32.3773 19.0519 32.3983 19.6213 32.7626 19.9595L35.2831 22.3L24.975 22.3C24.4779 22.3 24.075 22.703 24.075 23.2C24.075 23.6971 24.4779 24.1 24.975 24.1L35.2831 24.1L32.7626 26.4405C32.3983 26.7787 32.3773 27.3482 32.7155 27.7124C33.0537 28.0767 33.6232 28.0978 33.9874 27.7595L38.1874 23.8595C38.3708 23.6893 38.475 23.4503 38.475 23.2C38.475 22.9498 38.3708 22.7108 38.1874 22.5405L33.9874 18.6405C33.6232 18.3023 33.0537 18.3234 32.7155 18.6876ZM25.0345 28.2876C24.6963 27.9234 24.1268 27.9023 23.7626 28.2405L19.5626 32.1405C19.3792 32.3108 19.275 32.5498 19.275 32.8C19.275 33.0503 19.3792 33.2893 19.5626 33.4595L23.7626 37.3595C24.1268 37.6978 24.6963 37.6767 25.0345 37.3124C25.3727 36.9482 25.3516 36.3787 24.9874 36.0405L22.4669 33.7H32.775C33.2721 33.7 33.675 33.2971 33.675 32.8C33.675 32.303 33.2721 31.9 32.775 31.9H22.4669L24.9874 29.5595C25.3516 29.2213 25.3727 28.6519 25.0345 28.2876Z" fill="#A5C852"/>
</svg>
